PathFileType	4	(X/Y/Z)	Run_200 02
DataRate	CameraRate	NumFrames	NumMarkers	Units	OrigDataRate	OrigDataStartFrame	OrigNumFrames
100	100	7	42	mm	100	44	128
Frame#	Time	LPSI			RPSI			RTH1			RTH2			RTH3			LTH1			LTH2			LTH3			RTB1			RTB2			RTB3			LTB1			LTB2			LTB3			RCAL			RTOE			RMT5			LCAL			LTOE			LMT5			LACR			RACR			CLAV			C7			RUA1			RUA2			RUA3			RLEL			RMEL			LUA1			LUA2			LUA3			LLEL			LMEL			RFAsuperior			RFAradius			RFAulna			LFAsuperior			LFAradius			LFAulna			RASI			LASI			
		X1	Y1	Z1	X2	Y2	Z2	X3	Y3	Z3	X4	Y4	Z4	X5	Y5	Z5	X6	Y6	Z6	X7	Y7	Z7	X8	Y8	Z8	X9	Y9	Z9	X10	Y10	Z10	X11	Y11	Z11	X12	Y12	Z12	X13	Y13	Z13	X14	Y14	Z14	X15	Y15	Z15	X16	Y16	Z16	X17	Y17	Z17	X18	Y18	Z18	X19	Y19	Z19	X20	Y20	Z20	X21	Y21	Z21	X22	Y22	Z22	X23	Y23	Z23	X24	Y24	Z24	X25	Y25	Z25	X26	Y26	Z26	X27	Y27	Z27	X28	Y28	Z28	X29	Y29	Z29	X30	Y30	Z30	X31	Y31	Z31	X32	Y32	Z32	X33	Y33	Z33	X34	Y34	Z34	X35	Y35	Z35	X36	Y36	Z36	X37	Y37	Z37	X38	Y38	Z38	X39	Y39	Z39	X40	Y40	Z40	X41	Y41	Z41	X42	Y42	Z42	

27	1.07	612.313223	1114.752967	-506.349582	615.693238	1109.294913	-422.137145	708.37428	897.0733760000001	-280.125568	740.263483	755.678919	-296.71641	642.732083	663.8951039999999	-315.098413	764.203916	932.904418	-651.028998	865.264486	843.952572	-624.84095	824.8943420000001	690.825872	-627.611987	622.997981	409.737628	-371.302134	532.707089	342.688284	-326.264175	516.245014	240.760696	-385.422696	872.907388	464.243441	-576.78279	787.666616	412.478524	-639.1523539999999	787.107561	276.072758	-571.476502	342.080031	180.643264	-421.499539	534.593209	65.12773300000001	-383.12945	483.629056	57.7895	-300.742546	621.713757	180.441884	-542.696558	833.891881	93.553065	-574.983197	784.355384	73.997364	-648.799931	762.925311	1582.858956	-612.12707	756.935054	1545.404699	-279.626638	839.556117	1518.118338	-425.813799	701.9158660000001	1595.160635	-458.744424	719.739977	1428.064438	-197.956032	650.564435	1347.481963	-211.637143	702.330303	1310.233268	-168.858815	705.0209610000001	1216.214399	-148.283492	664.299066	1191.412092	-219.438338	685.676428	1528.538022	-714.414477	598.273963	1482.755552	-710.809047	623.103796	1451.952998	-782.436743	587.662902	1380.630696	-831.177924	522.605474	1371.995734	-787.159546	779.003188	1195.655278	-176.062398	934.187099	1258.001964	-298.44445	937.056556	1188.081497	-282.670089	646.059629	1277.8636	-786.387803	737.705203	1221.442041	-670.767665	687.984075	1178.127313	-688.843969	794.379911	1024.056813	-328.699698	802.57177	1051.836674	-592.511918	
28	1.08	616.087547	1119.817557	-506.725595	618.8623720000001	1114.437244	-421.929014	708.776029	902.053684	-280.80133	737.154415	760.390396	-297.50675	637.141364	671.002151	-316.044182	764.864004	938.805328	-652.057989	864.007456	847.671517	-626.933386	820.8689419999999	694.221357	-628.177522	613.906575	416.941413	-370.959852	523.207253	350.533531	-325.514213	507.0904	247.746579	-383.909578	876.064317	467.441087	-577.750125	795.337088	409.726564	-640.775287	804.2234	273.634314	-572.635278	333.884712	193.494387	-421.110444	516.988142	65.511326	-382.817363	465.846631	59.564053	-301.235032	646.456285	166.549528	-544.581206	864.02496	94.27066000000001	-574.780952	816.418631	70.43317500000001	-648.552494	762.067577	1588.800286	-613.46856	758.794819	1551.444496	-282.001126	839.922814	1524.29369	-428.842321	702.430758	1600.658621	-460.199528	722.133362	1434.633666	-199.297266	652.792849	1353.997672	-213.474521	704.414967	1317.1315	-169.987404	707.879316	1222.64869	-149.552742	666.831017	1197.769476	-220.559275	683.629567	1536.284521	-715.108998	595.99409	1491.171531	-710.564267	619.1835150000001	1460.291882	-782.512887	582.120449	1389.271747	-831.1798649999999	517.68148	1381.295256	-785.887876	781.929007	1203.296674	-178.109616	935.098752	1267.853684	-301.877693	938.807275	1197.88113	-286.851336	640.5361349999999	1286.407262	-787.304161	733.899778	1229.276033	-672.8842509999999	683.455925	1186.332351	-690.1132700000001	797.0310459999999	1029.269634	-329.720039	804.76973	1058.476206	-593.043479	
29	1.09	619.681369	1124.456994	-506.954848	622.145681	1119.256395	-421.851582	709.677068	906.670215	-281.355912	735.015315	764.532942	-298.23153	632.783566	677.586719	-316.893372	765.098336	943.689185	-652.973923	862.218537	849.961916	-629.197528	816.319822	696.7141329999999	-628.826059	606.222325	423.563735	-370.275586	514.814132	358.113516	-324.612022	498.82611	254.546038	-382.232254	878.329504	470.124202	-578.563085	802.532701	407.025767	-642.340839	820.200591	271.892678	-573.893955	326.962063	206.673054	-420.698275	499.998024	65.988623	-382.862074	448.249454	61.957058	-301.79349	670.214458	154.259708	-547.443269	892.333393	96.547984	-573.424861	847.703579	68.236017	-647.300195	761.234781	1593.994437	-614.912137	760.532302	1556.793964	-284.434259	840.210954	1529.530686	-431.980819	702.947554	1605.466365	-461.793609	723.787248	1440.420928	-200.946209	654.477575	1359.814404	-215.207726	705.9022210000001	1323.221072	-171.165385	709.926633	1228.249429	-150.968752	668.482273	1203.535105	-221.619893	681.747508	1542.969312	-715.9732739999999	594.092187	1498.15145	-710.612069	615.879876	1467.260034	-782.87262	577.484772	1396.387247	-831.293844	513.668002	1388.855463	-784.879578	784.0749	1209.777922	-180.283611	935.590212	1276.377765	-304.832333	939.84435	1206.187808	-290.939864	636.175487	1293.643337	-788.131555	731.2208900000001	1236.208254	-674.803929	680.224475	1193.512387	-691.085799	799.8291809999999	1034.110999	-330.773631	806.592417	1062.952533	-592.361371	
30	1.1	622.5980070000001	1128.580529	-506.873118	625.364536	1123.661591	-421.920436	711.212104	910.740268	-281.998474	733.884064	768.051315	-298.902796	629.935865	683.243972	-317.615213	764.848551	947.304062	-653.8043290000001	860.119412	851.001209	-631.507962	811.774617	698.45021	-629.568591	600.092955	429.144088	-369.291954	507.490867	365.242148	-323.579011	491.289395	260.974341	-380.348633	879.958392	472.428452	-579.219745	808.9879529999999	404.675003	-643.736215	834.752627	270.852967	-575.238208	320.912533	219.892105	-420.085076	483.78884	66.951269	-382.780621	430.747533	65.158423	-302.290453	692.490856	143.661553	-550.9370699999999	918.119364	100.097828	-571.141084	877.304288	67.237621	-645.261518	760.4049690000001	1598.240625	-616.49815	762.082024	1561.295688	-286.912385	840.4163	1533.913812	-435.048414	703.427181	1609.451485	-463.554797	724.840426	1445.25329	-202.953846	655.670929	1364.876296	-216.850981	706.8335489999999	1328.325144	-172.537587	711.263738	1233.165812	-152.26637	669.340591	1208.549921	-222.739398	679.989759	1548.318771	-717.024252	592.493516	1503.606435	-710.950297	613.194345	1472.674737	-783.544281	573.739389	1401.767718	-831.50312	510.555744	1394.515617	-784.229095	785.213717	1215.09532	-182.349565	935.686324	1283.392065	-307.337554	940.097388	1212.956877	-294.668134	633.034078	1299.407632	-788.918136	729.647082	1242.153076	-676.463918	678.3569680000001	1199.545117	-691.842097	802.65453	1038.374316	-331.872953	807.8964989999999	1065.49433	-590.847659	
31	1.11	625.023429	1131.842173	-506.783249	628.434559	1127.368212	-422.149906	713.35813	914.07945	-282.96288	733.7910419999999	770.896428	-299.579062	628.756075	687.592497	-318.165785	764.134604	949.580448	-654.74054	857.874262	851.053207	-633.753151	807.608526	699.459015	-630.30597	595.64896	433.411971	-368.200899	501.332506	371.713035	-322.456851	484.340855	266.870526	-378.319814	881.033854	474.314406	-579.578269	814.627784	402.896321	-644.959245	847.704375	270.460066	-576.669532	315.420034	232.935782	-419.246619	468.474822	68.72117900000001	-382.179192	413.506702	69.28839000000001	-302.73972	712.830906	135.177618	-554.796759	940.757749	104.245642	-568.471894	904.00685	66.96785	-642.860554	759.586044	1601.338958	-618.2496609999999	763.312085	1564.920363	-289.361697	840.59759	1537.504353	-437.908651	703.859387	1612.485871	-465.464463	725.46243	1449.112353	-205.175886	656.4028049999999	1369.127319	-218.532709	707.255454	1332.511114	-174.071113	711.849241	1237.390445	-153.471648	669.448577	1212.72177	-224.048384	678.383519	1552.130929	-718.258239	591.175329	1507.455662	-711.585361	611.089684	1476.406831	-784.4916019999999	570.882185	1405.275827	-831.864235	508.310809	1398.17639	-784.040968	785.303478	1219.37668	-184.137953	935.443846	1288.723948	-309.406894	939.5287080000001	1218.161135	-297.78219	631.131168	1303.592401	-789.727035	729.167727	1247.057289	-677.820971	677.996852	1204.29258	-692.544365	805.406958	1041.854717	-333.208175	808.851616	1067.031701	-590.013833	
32	1.12	627.268599	1134.037229	-507.04	631.241959	1130.121991	-422.494423	715.9727339999999	916.481232	-284.304742	734.872847	772.854821	-300.482681	629.344579	690.36765	-318.514928	763.086766	950.655401	-656.000661	855.623825	850.33863	-635.996651	803.921098	699.695964	-630.89611	592.830826	436.271649	-367.165948	496.586211	377.283642	-321.304279	477.896866	272.159432	-376.335578	881.608777	475.656918	-579.5089359999999	819.574561	401.667771	-645.9997969999999	858.9372530000001	270.544505	-578.051122	310.351638	245.672358	-418.318661	454.083109	71.38354200000001	-381.018517	396.9372	74.340823	-303.185683	730.637022	129.16929	-558.601416	959.77852	108.122176	-565.983172	926.620674	67.044892	-640.589696	758.809403	1603.156474	-620.1736560000001	764.188934	1567.706742	-291.707997	840.817825	1540.212476	-440.558006	704.257533	1614.464225	-467.467878	725.812499	1452.104674	-207.358573	656.682726	1372.508444	-220.434885	707.182396	1335.890587	-175.701136	711.554811	1240.653353	-154.928188	668.835114	1216.029995	-225.604661	677.014223	1554.306409	-719.682397	590.14933	1509.578881	-712.545787	609.5332540000001	1478.366569	-785.685818	568.948912	1406.868665	-832.538863	506.888847	1399.761582	-784.373918	784.543274	1222.576244	-185.79085	934.93376	1292.258041	-311.107166	938.260562	1221.702588	-300.215523	630.441253	1306.137683	-790.615397	729.770064	1250.880745	-678.954395	679.242531	1207.627906	-693.351352	808.003215	1044.402833	-335.033206	809.739838	1068.389996	-591.186752	
33	1.13	629.34451	1135.263877	-507.666746	633.581639	1131.874717	-422.856587	718.9497	917.705331	-285.869119	737.302008	773.627826	-301.884625	631.786618	691.443297	-318.696487	761.954839	950.741942	-657.609918	853.5434289999999	848.97043	-638.445347	800.686869	699.146119	-631.345358	591.400897	437.702436	-366.22361	493.474141	381.742626	-320.215857	471.91485	276.886312	-374.654878	881.888752	476.392414	-579.074043	823.902359	400.678954	-646.749048	868.231499	270.778185	-579.031029	305.640248	257.984376	-417.43392	440.53113	74.871334	-379.553819	381.523504	80.24272000000001	-303.537259	745.1984639999999	125.340441	-561.640631	974.825793	111.026135	-563.947951	944.361227	67.39095	-638.810939	758.119657	1603.665547	-622.265751	764.836228	1569.596798	-293.949962	841.092187	1541.874523	-443.065619	704.6372699999999	1615.331136	-469.531154	725.9970960000001	1454.296692	-209.32744	656.524005	1374.987241	-222.703	706.575523	1338.434071	-177.450636	710.333916	1242.695162	-156.842	667.567229	1218.47252	-227.393674	675.969742	1554.82468	-721.328649	589.421298	1509.857892	-713.8765059999999	608.523198	1478.500932	-787.140041	567.98396	1406.563963	-833.6840549999999	506.276461	1399.199463	-785.194767	783.154451	1224.404071	-187.605084	934.164364	1293.926074	-312.557273	936.536549	1223.415242	-302.096546	630.907377	1307.003241	-791.611991	731.412156	1253.571937	-679.994153	681.9657099999999	1209.48279	-694.289398	810.361076	1045.953805	-337.439264	810.665178	1069.582501	-594.0630180000001	
